<svg width="24" height="24" viewBox="0 0 24 24" fill="none" xmlns="http://www.w3.org/2000/svg">
<path fill-rule="evenodd" clip-rule="evenodd" d="M12.4029 15.8429C12.7935 16.2334 13.4266 16.2334 13.8171 15.8429L20.38 9.27999C21.3312 8.32926 21.9987 7.13241 22.3078 5.82361C22.5785 4.67738 22.5649 3.48495 22.2717 2.34941C22.193 2.04466 21.9554 1.80707 21.6506 1.72837C20.5151 1.43515 19.3227 1.42157 18.1764 1.69228C16.8676 2.00137 15.6708 2.66889 14.72 3.62L8.15715 10.1829C7.76663 10.5734 7.76663 11.2066 8.15715 11.5971L12.4029 15.8429ZM15.79 9.08999C15.79 9.59257 15.3692 9.99999 14.85 9.99999C14.3309 9.99999 13.91 9.59257 13.91 9.08999C13.91 8.58741 14.3309 8.17999 14.85 8.17999C15.3692 8.17999 15.79 8.58741 15.79 9.08999Z" fill="black"/>
<path d="M10.2152 16.9363C9.82998 17.1296 9.36431 17.0543 9.05958 16.7496L7.2504 14.9404C6.94567 14.6357 6.87044 14.17 7.06372 13.7848L7.53869 12.8382C7.84453 12.2287 8.65737 12.0974 9.13959 12.5796L11.4204 14.8604C11.9026 15.3426 11.7713 16.1555 11.1618 16.4613L10.2152 16.9363Z" fill="black" stroke="black" stroke-miterlimit="10"/>
<path d="M3.73009 16.27C3.99082 15.969 4.30888 15.7228 4.66572 15.546C5.02256 15.3692 5.41104 15.2652 5.8085 15.24C6.20596 15.2149 6.60444 15.2691 6.98072 15.3996C7.35699 15.5301 7.70352 15.7342 8.00009 16C8.26589 16.2966 8.46999 16.6431 8.60047 17.0194C8.73095 17.3957 8.78521 17.7941 8.76008 18.1916C8.73494 18.5891 8.63093 18.9775 8.45409 19.3344C8.27725 19.6912 8.03113 20.0093 7.73009 20.27C6.15734 21.8428 3.78996 22.3068 2.47258 22.4434C1.93305 22.4993 1.50076 22.067 1.55669 21.5275C1.69327 20.2101 2.15734 17.8428 3.73009 16.27Z" fill="black"/>
</svg>
